<?xml version="1.0" encoding="utf-8"?>
<svg id="e8806aae-1dd3-4f44-829b-8bd04a0ec3ea" data-name="Layer 1" width="896" height="529.1129" viewBox="0 0 896 529.1129" xmlns="http://www.w3.org/2000/svg">
  <path d="M832.06729,623.22778s-26.37759,9.89441-38.806,32.94348S787.06,706.69574,787.06,706.69574s26.37759-9.89447,38.806-32.94348S832.06729,623.22778,832.06729,623.22778Z" transform="translate(-158 -185.8871)" fill="#3f3d56"/>
  <path d="M867.5,657.59637s-8.64182,26.814-31.0802,40.31373-50.17651,8.57293-50.17651,8.57293,8.64175-26.81408,31.08017-40.31378S867.5,657.59637,867.5,657.59637Z" transform="translate(-158 -185.8871)" fill="#00bfa6"/>
  <path d="M841.5,714s-17.46191-5.41315-52.26129-10.84192L790,692.5c6-60-34-150-34-150a401.561,401.561,0,0,1,21.4693,139.0246C772.13214,672.2124,761.82056,662.16638,742,656c0,0,25.77765,22.106,33.15918,45.10175a997.84042,997.84042,0,0,0-102.02258-8.21589L682,672.5l-17,17s-7-51-22-53l11,50s-13-10-16-9l7.39746,14.79486c-49.819-.51654-109.08453,1.7356-177.76581,8.95227L476,682l-17,17s-7-51-22-53l11,50s-13-10-16-9l8.64288,17.28583Q406.9763,708.2897,370.5,714Z" transform="translate(-158 -185.8871)" fill="#3f3d56"/>
</svg>